<mxfile host="65bd71144e">
    <diagram id="3kHtlzZj2qz9C2MX2CeU" name="Page-1">
        <mxGraphModel dx="2506" dy="1028" grid="1" gridSize="10" guides="1" tooltips="1" connect="1" arrows="1" fold="1" page="1" pageScale="1" pageWidth="850" pageHeight="1100" math="0" shadow="0">
            <root>
                <mxCell id="0"/>
                <mxCell id="1" parent="0"/>
                <mxCell id="2" value="extract_parameters" style="swimlane;whiteSpace=wrap;html=1;fontStyle=0;sketch=1;curveFitting=1;jiggle=2;" vertex="1" parent="1">
                    <mxGeometry x="-910" y="80" width="940" height="1090" as="geometry"/>
                </mxCell>
                <mxCell id="28" style="edgeStyle=none;html=1;entryX=0.5;entryY=0;entryDx=0;entryDy=0;" edge="1" parent="2" target="6">
                    <mxGeometry relative="1" as="geometry">
                        <mxPoint x="550" y="100" as="sourcePoint"/>
                    </mxGeometry>
                </mxCell>
                <mxCell id="11" value="main.py" style="rounded=0;whiteSpace=wrap;html=1;fillColor=#60a917;fontColor=#ffffff;strokeColor=#2D7600;" vertex="1" parent="2">
                    <mxGeometry x="465" y="60" width="200" height="40" as="geometry"/>
                </mxCell>
                <mxCell id="5" value="core" style="swimlane;whiteSpace=wrap;html=1;fontStyle=0;startSize=30;" vertex="1" parent="2">
                    <mxGeometry x="390" y="460" width="420" height="280" as="geometry"/>
                </mxCell>
                <mxCell id="9" value="parameters_parser.py" style="rounded=0;whiteSpace=wrap;html=1;" vertex="1" parent="5">
                    <mxGeometry x="15" y="210" width="140" height="40" as="geometry"/>
                </mxCell>
                <mxCell id="8" value="osdi_manager.py" style="rounded=0;whiteSpace=wrap;html=1;" vertex="1" parent="5">
                    <mxGeometry x="245" y="210" width="120" height="40" as="geometry"/>
                </mxCell>
                <mxCell id="34" style="edgeStyle=orthogonalEdgeStyle;html=1;exitX=1;exitY=0.5;exitDx=0;exitDy=0;entryX=0.5;entryY=0;entryDx=0;entryDy=0;curved=1;startArrow=block;startFill=1;" edge="1" parent="5" source="10" target="8">
                    <mxGeometry relative="1" as="geometry">
                        <mxPoint x="310" y="210" as="targetPoint"/>
                    </mxGeometry>
                </mxCell>
                <mxCell id="36" style="edgeStyle=orthogonalEdgeStyle;html=1;exitX=0;exitY=0.5;exitDx=0;exitDy=0;entryX=0.5;entryY=0;entryDx=0;entryDy=0;curved=1;startArrow=classic;startFill=1;" edge="1" parent="5" source="10" target="9">
                    <mxGeometry relative="1" as="geometry"/>
                </mxCell>
                <mxCell id="10" value="simulation_runner.py" style="rounded=0;whiteSpace=wrap;html=1;" vertex="1" parent="5">
                    <mxGeometry x="120" y="140" width="140" height="40" as="geometry"/>
                </mxCell>
                <mxCell id="33" style="edgeStyle=orthogonalEdgeStyle;html=1;entryX=0.5;entryY=0;entryDx=0;entryDy=0;curved=1;startArrow=none;startFill=0;" edge="1" parent="5" target="7">
                    <mxGeometry relative="1" as="geometry">
                        <mxPoint x="210" y="30" as="sourcePoint"/>
                        <mxPoint x="209.5" y="60" as="targetPoint"/>
                    </mxGeometry>
                </mxCell>
                <mxCell id="7" value="file_manager.py" style="rounded=0;whiteSpace=wrap;html=1;" vertex="1" parent="5">
                    <mxGeometry x="285" y="80" width="120" height="40" as="geometry"/>
                </mxCell>
                <mxCell id="38" style="edgeStyle=orthogonalEdgeStyle;html=1;exitX=0.5;exitY=1;exitDx=0;exitDy=0;entryX=0.5;entryY=0;entryDx=0;entryDy=0;curved=1;startArrow=none;startFill=0;" edge="1" parent="5" target="10">
                    <mxGeometry relative="1" as="geometry">
                        <mxPoint x="209.5" y="30" as="sourcePoint"/>
                        <mxPoint x="209.5" y="120" as="targetPoint"/>
                    </mxGeometry>
                </mxCell>
                <mxCell id="44" style="edgeStyle=orthogonalEdgeStyle;html=1;entryX=0.5;entryY=0;entryDx=0;entryDy=0;curved=1;startArrow=classic;startFill=1;" edge="1" parent="5">
                    <mxGeometry relative="1" as="geometry">
                        <mxPoint x="210" y="30" as="sourcePoint"/>
                        <mxPoint x="67.5" y="210" as="targetPoint"/>
                    </mxGeometry>
                </mxCell>
                <mxCell id="32" style="edgeStyle=none;html=1;exitX=0.5;exitY=1;exitDx=0;exitDy=0;entryX=0.5;entryY=0;entryDx=0;entryDy=0;" edge="1" parent="2" source="6" target="5">
                    <mxGeometry relative="1" as="geometry"/>
                </mxCell>
                <mxCell id="41" style="edgeStyle=none;html=1;entryX=0.5;entryY=0;entryDx=0;entryDy=0;exitX=0.5;exitY=1;exitDx=0;exitDy=0;" edge="1" parent="2" source="6" target="23">
                    <mxGeometry relative="1" as="geometry"/>
                </mxCell>
                <mxCell id="6" value="graphics" style="swimlane;whiteSpace=wrap;html=1;fontStyle=0;startSize=20;" vertex="1" parent="2">
                    <mxGeometry x="360" y="170" width="250" height="180" as="geometry"/>
                </mxCell>
                <mxCell id="29" style="edgeStyle=none;html=1;exitX=0.5;exitY=1;exitDx=0;exitDy=0;entryX=0.5;entryY=0;entryDx=0;entryDy=0;" edge="1" parent="6" source="21" target="22">
                    <mxGeometry relative="1" as="geometry"/>
                </mxCell>
                <mxCell id="21" value="ui.py" style="rounded=0;whiteSpace=wrap;html=1;" vertex="1" parent="6">
                    <mxGeometry x="70" y="40" width="110" height="40" as="geometry"/>
                </mxCell>
                <mxCell id="31" style="edgeStyle=none;html=1;exitX=0.5;exitY=1;exitDx=0;exitDy=0;entryX=0.5;entryY=1;entryDx=0;entryDy=0;" edge="1" parent="6" source="22" target="6">
                    <mxGeometry relative="1" as="geometry"/>
                </mxCell>
                <mxCell id="22" value="handlers.py" style="rounded=0;whiteSpace=wrap;html=1;" vertex="1" parent="6">
                    <mxGeometry x="70" y="110" width="110" height="40" as="geometry"/>
                </mxCell>
                <mxCell id="30" style="edgeStyle=none;html=1;entryX=0.5;entryY=0;entryDx=0;entryDy=0;" edge="1" parent="6">
                    <mxGeometry relative="1" as="geometry">
                        <mxPoint x="125" y="20" as="sourcePoint"/>
                        <mxPoint x="124.5" y="40" as="targetPoint"/>
                    </mxGeometry>
                </mxCell>
                <mxCell id="15" value="examples" style="swimlane;whiteSpace=wrap;html=1;fontStyle=0" vertex="1" parent="2">
                    <mxGeometry x="610" y="850" width="210" height="150" as="geometry"/>
                </mxCell>
                <mxCell id="16" value="MODEL_NAME" style="rounded=0;whiteSpace=wrap;html=1;fillColor=#1ba1e2;fontColor=#ffffff;strokeColor=#006EAF;" vertex="1" parent="15">
                    <mxGeometry x="30" y="40" width="150" height="40" as="geometry"/>
                </mxCell>
                <mxCell id="26" value="MODEL_NAME" style="rounded=0;whiteSpace=wrap;html=1;fillColor=#1ba1e2;fontColor=#ffffff;strokeColor=#006EAF;" vertex="1" parent="15">
                    <mxGeometry x="30" y="90" width="150" height="40" as="geometry"/>
                </mxCell>
                <mxCell id="17" value="code" style="swimlane;whiteSpace=wrap;html=1;fontStyle=0" vertex="1" parent="2">
                    <mxGeometry x="320" y="850" width="220" height="150" as="geometry"/>
                </mxCell>
                <mxCell id="18" value="MODEL_NAME" style="rounded=0;whiteSpace=wrap;html=1;fillColor=#a20025;fontColor=#ffffff;strokeColor=#6F0000;" vertex="1" parent="17">
                    <mxGeometry x="35" y="40" width="150" height="40" as="geometry"/>
                </mxCell>
                <mxCell id="27" value="MODEL_NAME" style="rounded=0;whiteSpace=wrap;html=1;fillColor=#a20025;fontColor=#ffffff;strokeColor=#6F0000;" vertex="1" parent="17">
                    <mxGeometry x="35" y="100" width="150" height="40" as="geometry"/>
                </mxCell>
                <mxCell id="19" value="osdilibs" style="swimlane;whiteSpace=wrap;html=1;fontStyle=0" vertex="1" parent="2">
                    <mxGeometry x="110" y="860" width="150" height="120" as="geometry"/>
                </mxCell>
                <mxCell id="20" value="model_name.osdi" style="rounded=0;whiteSpace=wrap;html=1;" vertex="1" parent="19">
                    <mxGeometry x="15" y="40" width="120" height="40" as="geometry"/>
                </mxCell>
                <mxCell id="23" value="graphics" style="swimlane;whiteSpace=wrap;html=1;fontStyle=0" vertex="1" parent="2">
                    <mxGeometry x="110" y="500" width="250" height="120" as="geometry"/>
                </mxCell>
                <mxCell id="14" value="plot_simulation.py" style="rounded=0;whiteSpace=wrap;html=1;" vertex="1" parent="23">
                    <mxGeometry x="70" y="50" width="110" height="40" as="geometry"/>
                </mxCell>
            </root>
        </mxGraphModel>
    </diagram>
</mxfile>